<svg width="257" height="86" viewBox="0 0 257 86" fill="none" xmlns="http://www.w3.org/2000/svg">
<path d="M84.855 34.6532C84.855 32.0575 85.7687 29.8474 87.5991 28.017C89.4381 26.1894 91.6511 25.2728 94.2354 25.2728C96.8196 25.2728 99.0326 26.1866 100.872 28.017C102.699 29.8445 103.613 32.0575 103.613 34.6532C103.613 37.2489 102.699 39.4448 100.872 41.2723C100.181 41.9605 99.2554 42.503 98.096 42.8971L101.231 44.6047C101.78 45.0102 102.119 45.4928 102.251 46.0496C102.394 46.6293 102.274 47.1718 101.888 47.6744C101.506 48.1998 100.992 48.5111 100.346 48.611C99.7008 48.7109 99.1183 48.5625 98.6043 48.1684L91.4598 43.6681C90.7145 43.1969 90.3433 42.5287 90.3433 41.6635C90.3433 41.0067 90.5746 40.4471 91.0343 39.9873C91.4941 39.5276 92.0538 39.2991 92.7105 39.2991H94.2382C95.5175 39.2991 96.614 38.8451 97.5221 37.9371C98.4301 37.029 98.8842 35.9325 98.8842 34.6532C98.8842 33.3739 98.4301 32.2774 97.5221 31.3694C96.614 30.4613 95.5175 30.0073 94.2382 30.0073C92.9589 30.0073 91.8624 30.4613 90.9544 31.3694C90.0463 32.2774 89.5923 33.3739 89.5923 34.6532V46.2809C89.5923 46.9377 89.361 47.4973 88.9012 47.9571C88.4415 48.4168 87.8818 48.6481 87.2251 48.6481C86.5683 48.6481 86.0086 48.4168 85.5489 47.9571C85.0891 47.4973 84.8578 46.9377 84.8578 46.2809V34.6532H84.855Z" fill="#231F20"/>
<path d="M119.626 42.4859C120.326 42.5316 120.88 42.7972 121.285 43.2912C121.702 43.7852 121.859 44.3363 121.762 44.9502C121.674 45.5299 121.374 46.0325 120.86 46.4608C120.018 47.1604 119.064 47.703 118.002 48.0856C116.951 48.4568 115.877 48.6453 114.783 48.6453C112.156 48.6453 109.912 47.7144 108.05 45.8526C106.188 43.9908 105.257 41.7463 105.257 39.1193C105.257 36.4922 106.188 34.2306 108.05 32.3688C109.912 30.507 112.156 29.5761 114.783 29.5761C117.41 29.5761 119.672 30.507 121.534 32.3688C123.396 34.2306 124.326 36.4808 124.326 39.1193C124.326 40.3357 123.538 40.9439 121.962 40.9439H110.383C110.614 41.8634 111.063 42.603 111.731 43.1598C112.53 43.8166 113.55 44.145 114.786 44.145C115.946 44.145 116.965 43.7795 117.842 43.0456C118.356 42.6287 118.952 42.4431 119.632 42.4859H119.626ZM118.984 37.2803C118.141 35.133 116.739 34.0621 114.78 34.0621C112.613 34.0621 111.117 35.1358 110.297 37.2803H118.987H118.984Z" fill="#231F20"/>
<path d="M131.189 40.6641C131.189 41.5607 131.506 42.3289 132.142 42.9628C132.776 43.5967 133.55 43.9165 134.458 43.9165C135.366 43.9165 136.123 43.5996 136.757 42.9628C137.391 42.3289 137.708 41.5607 137.708 40.6641V31.9434C137.708 31.2866 137.939 30.7269 138.399 30.2672C138.858 29.8074 139.415 29.579 140.075 29.579C140.735 29.579 141.291 29.8074 141.751 30.2672C142.211 30.7269 142.439 31.2866 142.439 31.9434V40.6641C142.439 41.5607 142.756 42.3289 143.393 42.9628C144.027 43.5967 144.795 43.9165 145.692 43.9165C146.588 43.9165 147.374 43.5996 148.008 42.9628C148.641 42.326 148.961 41.5607 148.961 40.6641V31.9434C148.961 31.2866 149.193 30.7269 149.652 30.2672C150.112 29.8074 150.672 29.579 151.329 29.579C151.985 29.579 152.545 29.8074 153.005 30.2672C153.464 30.7269 153.696 31.2866 153.696 31.9434V40.6641C153.696 42.8657 152.913 44.7475 151.349 46.3152C149.792 47.8686 147.91 48.6481 145.697 48.6481C143.484 48.6481 141.634 47.8772 140.081 46.3323C138.527 47.8743 136.654 48.6481 134.464 48.6481C132.274 48.6481 130.369 47.8714 128.813 46.3152C127.248 44.7504 126.463 42.8657 126.463 40.6641V31.9434C126.463 31.2866 126.694 30.7269 127.154 30.2672C127.613 29.8074 128.173 29.579 128.83 29.579C129.487 29.579 130.046 29.8074 130.506 30.2672C130.966 30.7269 131.197 31.2866 131.197 31.9434V40.6641H131.189Z" fill="#231F20"/>
<path d="M174.892 46.2809C174.892 46.9377 174.655 47.4974 174.187 47.9571C173.727 48.4168 173.173 48.6481 172.528 48.6481C171.497 48.6481 170.775 48.177 170.361 47.2347C168.827 48.177 167.157 48.6481 165.352 48.6481C162.725 48.6481 160.481 47.7172 158.619 45.8554C156.757 43.9936 155.826 41.7492 155.826 39.1221C155.826 36.495 156.757 34.2335 158.619 32.3717C160.481 30.5099 162.725 29.579 165.352 29.579C167.979 29.579 170.241 30.5099 172.103 32.3717C173.964 34.2335 174.895 36.4836 174.895 39.1221V46.2838L174.892 46.2809ZM165.349 34.3077C164.024 34.3077 162.896 34.7789 161.966 35.7183C161.023 36.6607 160.552 37.7943 160.552 39.1193C160.552 40.4442 161.023 41.5779 161.966 42.5202C162.908 43.4625 164.024 43.9165 165.349 43.9165C166.674 43.9165 167.808 43.4511 168.75 42.5202C169.693 41.5779 170.164 40.4442 170.164 39.1193C170.164 37.7943 169.693 36.6607 168.75 35.7183C167.808 34.776 166.674 34.3077 165.349 34.3077Z" fill="#231F20"/>
<path d="M193.927 39.7932C193.467 40.2643 192.908 40.4985 192.251 40.4985C191.594 40.4985 191.037 40.2643 190.575 39.7932C190.115 39.3334 189.884 38.7795 189.884 38.1341C189.884 37.0719 189.512 36.1695 188.767 35.4242C188.022 34.6789 187.125 34.3077 186.074 34.3077C185.023 34.3077 184.11 34.6789 183.364 35.4242C182.619 36.1695 182.248 37.0719 182.248 38.1341V46.2809C182.248 46.9377 182.017 47.4974 181.557 47.9571C181.097 48.4168 180.537 48.6481 179.881 48.6481C179.224 48.6481 178.664 48.4168 178.204 47.9571C177.745 47.4974 177.513 46.9377 177.513 46.2809V38.1341C177.513 35.7697 178.344 33.7537 180.009 32.089C181.685 30.4128 183.704 29.5761 186.069 29.5761C188.433 29.5761 190.438 30.4128 192.114 32.089C193.778 33.7537 194.609 35.7669 194.609 38.1341C194.609 38.7795 194.381 39.3334 193.921 39.7932H193.927Z" fill="#231F20"/>
<path d="M210.352 27.6572C210.352 27.0004 210.581 26.4408 211.04 25.981C211.5 25.5213 212.06 25.29 212.717 25.29C213.373 25.29 213.916 25.5213 214.376 25.981C214.847 26.4408 215.081 27.0004 215.081 27.6572V39.1221C215.081 41.7492 214.15 43.9936 212.288 45.8554C210.426 47.7172 208.176 48.6481 205.538 48.6481C202.899 48.6481 200.666 47.7172 198.804 45.8554C196.943 43.9936 196.012 41.7492 196.012 39.1221C196.012 36.495 196.943 34.2335 198.804 32.3717C200.666 30.5099 202.911 29.579 205.538 29.579C207.268 29.579 208.873 30.0102 210.349 30.8754V27.6572H210.352ZM208.939 42.5202C209.881 41.5779 210.352 40.4442 210.352 39.1193C210.352 37.7943 209.881 36.6607 208.939 35.7183C207.996 34.776 206.863 34.3077 205.538 34.3077C204.213 34.3077 203.085 34.7789 202.154 35.7183C201.212 36.6607 200.74 37.7943 200.74 39.1193C200.74 40.4442 201.212 41.5779 202.154 42.5202C203.096 43.4625 204.213 43.9165 205.538 43.9165C206.863 43.9165 207.996 43.4511 208.939 42.5202Z" fill="#231F20"/>
<path d="M231.589 42.4859C232.288 42.5316 232.842 42.7972 233.248 43.2912C233.665 43.7852 233.822 44.3363 233.725 44.9502C233.636 45.5299 233.336 46.0325 232.822 46.4608C231.98 47.1604 231.026 47.703 229.964 48.0856C228.913 48.4568 227.839 48.6453 226.746 48.6453C224.119 48.6453 221.874 47.7144 220.012 45.8526C218.151 43.9908 217.22 41.7463 217.22 39.1193C217.22 36.4922 218.151 34.2306 220.012 32.3688C221.874 30.507 224.119 29.5761 226.746 29.5761C229.373 29.5761 231.634 30.507 233.496 32.3688C235.358 34.2306 236.289 36.4808 236.289 39.1193C236.289 40.3357 235.501 40.9439 233.925 40.9439H222.345C222.577 41.8634 223.025 42.603 223.693 43.1598C224.493 43.8166 225.512 44.145 226.749 44.145C227.908 44.145 228.927 43.7795 229.804 43.0456C230.318 42.6287 230.915 42.4431 231.594 42.4859H231.589ZM230.949 37.2803C230.107 35.133 228.705 34.0621 226.746 34.0621C224.578 34.0621 223.082 35.1358 222.263 37.2803H230.952H230.949Z" fill="#231F20"/>
<path d="M252.268 27.6572C252.268 27.0004 252.497 26.4408 252.956 25.981C253.416 25.5213 253.976 25.29 254.633 25.29C255.289 25.29 255.832 25.5213 256.292 25.981C256.763 26.4408 256.997 27.0004 256.997 27.6572V39.1221C256.997 41.7492 256.066 43.9936 254.204 45.8554C252.342 47.7172 250.092 48.6481 247.454 48.6481C244.815 48.6481 242.582 47.7172 240.72 45.8554C238.859 43.9936 237.928 41.7492 237.928 39.1221C237.928 36.495 238.859 34.2335 240.72 32.3717C242.582 30.5099 244.827 29.579 247.454 29.579C249.184 29.579 250.789 30.0102 252.265 30.8754V27.6572H252.268ZM250.855 42.5202C251.797 41.5779 252.268 40.4442 252.268 39.1193C252.268 37.7943 251.797 36.6607 250.855 35.7183C249.912 34.776 248.779 34.3077 247.454 34.3077C246.129 34.3077 245.001 34.7789 244.07 35.7183C243.128 36.6607 242.656 37.7943 242.656 39.1193C242.656 40.4442 243.128 41.5779 244.07 42.5202C245.012 43.4625 246.129 43.9165 247.454 43.9165C248.779 43.9165 249.912 43.4511 250.855 42.5202Z" fill="#231F20"/>
<path d="M187.342 62.9286C187.342 60.3443 188.256 58.137 190.086 56.3095C191.914 54.4819 194.127 53.5682 196.723 53.5682C199.318 53.5682 201.514 54.4819 203.342 56.3095C205.169 58.1399 206.083 60.3443 206.083 62.9286C206.083 65.5128 205.169 67.7344 203.342 69.5648C201.514 71.3923 199.307 72.309 196.723 72.309H192.074V74.5591C192.074 75.2159 191.843 75.7756 191.383 76.2353C190.923 76.695 190.363 76.9263 189.707 76.9263C189.05 76.9263 188.49 76.695 188.03 76.2353C187.571 75.7756 187.339 75.2159 187.339 74.5591V62.9314L187.342 62.9286ZM192.074 67.5745H196.723C198.002 67.5745 199.093 67.1205 199.992 66.2124C200.9 65.3044 201.354 64.2078 201.354 62.9286C201.354 61.6493 200.9 60.5585 199.992 59.659C199.096 58.7509 198.005 58.2969 196.723 58.2969C195.44 58.2969 194.335 58.7509 193.439 59.659C192.531 60.5585 192.077 61.6464 192.077 62.9286V67.5774L192.074 67.5745Z" fill="#231F20"/>
<path d="M213.439 74.5562C213.439 75.213 213.208 75.7727 212.748 76.2324C212.288 76.6922 211.729 76.9235 211.072 76.9235C210.415 76.9235 209.855 76.6922 209.396 76.2324C208.936 75.7727 208.705 75.213 208.705 74.5562V55.9325C208.705 55.2758 208.936 54.7161 209.396 54.2563C209.855 53.7966 210.415 53.5653 211.072 53.5653C211.729 53.5653 212.288 53.7966 212.748 54.2563C213.208 54.7161 213.439 55.2758 213.439 55.9325V74.5562Z" fill="#231F20"/>
<path d="M235.301 74.5562C235.301 75.213 235.064 75.7727 234.596 76.2324C234.136 76.6922 233.582 76.9235 232.937 76.9235C231.906 76.9235 231.183 76.4523 230.769 75.51C229.236 76.4523 227.565 76.9235 225.761 76.9235C223.134 76.9235 220.889 75.9926 219.027 74.1308C217.166 72.269 216.235 70.0245 216.235 67.3975C216.235 64.7704 217.166 62.5088 219.027 60.647C220.889 58.7852 223.134 57.8543 225.761 57.8543C228.388 57.8543 230.649 58.7852 232.511 60.647C234.373 62.5088 235.304 64.759 235.304 67.3975V74.5591L235.301 74.5562ZM225.758 62.5831C224.433 62.5831 223.305 63.0542 222.374 63.9937C221.432 64.936 220.961 66.0696 220.961 67.3946C220.961 68.7196 221.432 69.8532 222.374 70.7955C223.316 71.7378 224.433 72.1919 225.758 72.1919C227.083 72.1919 228.216 71.7264 229.159 70.7955C230.101 69.8532 230.572 68.7196 230.572 67.3946C230.572 66.0696 230.101 64.936 229.159 63.9937C228.216 63.0514 227.083 62.5831 225.758 62.5831Z" fill="#231F20"/>
<path d="M252.268 60.2187C252.268 59.5619 252.5 59.0022 252.959 58.5425C253.419 58.0827 253.976 57.8543 254.636 57.8543C255.295 57.8543 255.852 58.0827 256.312 58.5425C256.771 59.0022 257 59.5619 257 60.2187V75.6413C257 78.2684 256.069 80.5129 254.207 82.3747C252.345 84.2365 250.101 85.1674 247.474 85.1674C245.94 85.1674 244.484 84.8161 243.105 84.1165C241.737 83.4055 240.604 82.4261 239.704 81.1782C239.333 80.6528 239.196 80.0674 239.293 79.4192C239.401 78.7738 239.724 78.2627 240.261 77.8915C240.786 77.5088 241.372 77.3718 242.017 77.4803C242.662 77.5802 243.173 77.8972 243.545 78.434C244.004 79.068 244.578 79.562 245.269 79.9132C245.949 80.2644 246.68 80.4386 247.471 80.4386C248.796 80.4386 249.924 79.9674 250.855 79.0251C251.797 78.0942 252.265 76.9606 252.265 75.6242C250.789 76.4894 249.19 76.9206 247.468 76.9206C244.83 76.9206 242.58 75.9897 240.718 74.1279C238.856 72.2661 237.925 70.016 237.925 67.3775V60.2158C237.925 59.559 238.156 58.9994 238.616 58.5396C239.076 58.0799 239.635 57.8514 240.292 57.8514C240.949 57.8514 241.509 58.0799 241.968 58.5396C242.428 58.9994 242.659 59.559 242.659 60.2158V67.3775C242.659 68.7024 243.131 69.8361 244.073 70.7784C245.004 71.7207 246.138 72.1919 247.474 72.1919C248.81 72.1919 249.927 71.7207 250.858 70.7784C251.8 69.8361 252.268 68.7024 252.268 67.3775V60.2158V60.2187Z" fill="#231F20"/>
<path d="M65.3004 22.6115C65.2261 22.6372 65.1548 22.6458 65.0805 22.6458C64.7693 22.6458 64.4809 22.4459 64.3838 22.1375L61.4597 12.9341C61.3369 12.5486 61.5482 12.1346 61.9337 12.0118C62.3192 11.889 62.7276 12.1032 62.8561 12.4887L65.7801 21.692C65.9029 22.0775 65.6887 22.4859 65.3032 22.6086L65.3004 22.6115Z" fill="#231F20"/>
<path d="M9.06072 31.6149C7.44164 31.6149 6.12524 32.937 6.12524 34.5533C6.12524 36.1695 7.44164 37.4887 9.06072 37.4887C10.6798 37.4887 11.9991 36.1723 11.9991 34.5533C11.9991 32.9342 10.6769 31.6149 9.06072 31.6149ZM9.06072 36.0267C8.25261 36.0267 7.58727 35.3642 7.58727 34.5533C7.58727 33.7423 8.24975 33.077 9.06072 33.077C9.87169 33.077 10.537 33.7394 10.537 34.5533C10.537 35.3671 9.87454 36.0267 9.06072 36.0267Z" fill="#231F20"/>
<path d="M75.089 83.9424L68.4784 63.02C68.4213 62.8343 68.2871 62.6773 68.1186 62.5916C67.9416 62.5003 67.7446 62.4831 67.559 62.5431L31.6594 74.0223C31.4738 74.0794 31.3167 74.2136 31.231 74.3878C31.1425 74.562 31.1225 74.7619 31.1882 74.9475L34.3378 84.3964C34.4349 84.6934 34.7176 84.899 35.0289 84.899H74.3922C74.6264 84.899 74.8463 84.7876 74.9833 84.5963C75.1204 84.4107 75.1632 84.1679 75.0918 83.9424H75.089ZM35.5543 83.4369L32.8101 75.1873L67.3048 64.1593L73.3928 83.4341H35.5543V83.4369Z" fill="#231F20"/>
<path d="M73.3927 83.4369H35.5542L32.8101 75.1873L67.3047 64.1622L73.3927 83.4369Z" fill="#E81961"/>
<path d="M62.2447 62.7516L61.4052 60.0988C61.2795 59.7133 60.8683 59.4991 60.4828 59.6219L34.5833 67.8544C34.3976 67.9115 34.2406 68.0457 34.1549 68.2142C34.0664 68.3884 34.0464 68.5883 34.1064 68.7739L34.9488 71.4209C35.0458 71.7322 35.3343 71.9321 35.6455 71.9321C35.7197 71.9321 35.7911 71.9235 35.8654 71.8978L61.7707 63.6653C61.9563 63.6082 62.1076 63.474 62.199 63.3055C62.2875 63.1342 62.3018 62.9343 62.2418 62.7487L62.2447 62.7516ZM36.1195 70.2901L35.7197 69.0337L60.2315 61.2438L60.6313 62.4974L36.1195 70.293V70.2901Z" fill="#231F20"/>
<path d="M60.6287 62.4945L36.1197 70.2901L35.72 69.0308L60.2318 61.241L60.6287 62.4945Z" fill="#5BB9D2"/>
<path d="M60.64 58.3941L59.7977 55.7413C59.7405 55.5557 59.612 55.3986 59.4379 55.3129C59.2665 55.2244 59.0666 55.2044 58.881 55.2644L32.9757 63.4969C32.7901 63.554 32.6388 63.6882 32.5474 63.8567C32.4589 64.0309 32.4446 64.2307 32.5046 64.4163L33.347 67.0634C33.4441 67.3747 33.7325 67.5745 34.0437 67.5745C34.118 67.5745 34.1893 67.566 34.2636 67.5403L60.1632 59.3078C60.5487 59.185 60.7628 58.771 60.64 58.3912V58.3941ZM34.5149 65.9269L34.1151 64.6733L58.6269 56.8835L59.0267 58.1371L34.5149 65.9269Z" fill="#231F20"/>
<path d="M59.0266 58.1371L34.5148 65.9269L34.115 64.6733L58.6268 56.8835L59.0266 58.1371Z" fill="#5BB9D2"/>
<path d="M72.3905 28.3682L64.4779 3.48807C64.0724 2.21451 63.1958 1.17224 62.0107 0.558305C60.8257 -0.0499205 59.475 -0.166997 58.2072 0.235632L3.48967 17.6286C2.21326 18.0341 1.17385 18.9107 0.559909 20.0958C-0.0540281 21.2808 -0.165393 22.6343 0.237235 23.9022L8.14417 48.788C8.82093 50.9126 10.797 52.2746 12.9129 52.2746C13.4155 52.2689 13.9209 52.1975 14.4178 52.0348L22.5503 49.4505L22.8758 55.9583C22.8872 56.1924 23.0072 56.4009 23.2013 56.5322L32.259 62.5288C32.3818 62.6059 32.5218 62.6459 32.6645 62.6459C32.7388 62.6459 32.8102 62.6373 32.8844 62.6116L58.7983 54.4134C59.0667 54.3306 59.2608 54.1022 59.3008 53.828C59.3065 53.8138 59.3151 53.8023 59.3208 53.7881L63.27 43.6681C63.3528 43.4539 63.33 43.2112 63.2072 43.0113L59.7891 37.6144L69.1438 34.6418C71.7652 33.8023 73.2243 30.9896 72.3905 28.3682ZM61.7737 43.4853L58.0844 52.9343L57.9816 52.9628C57.8102 53.0171 57.6732 53.1284 57.5818 53.2712L32.7787 61.121L24.3207 55.5185L23.9952 48.9965L31.0397 46.7578L31.8307 49.4105C31.8907 49.6019 32.0163 49.7561 32.1905 49.8503C32.3618 49.9417 32.5646 49.9617 32.7502 49.8988L51.6852 43.8794C51.8765 43.8223 52.0278 43.6881 52.1192 43.5139C52.2077 43.3426 52.222 43.1398 52.1592 42.9542L45.9827 24.5218L50.8685 26.238L61.7794 43.4911L61.7737 43.4853ZM32.4332 46.3123L49.8862 40.764L50.5344 42.7086L33.0186 48.2769L32.4332 46.3123ZM68.6955 33.2483L58.9839 36.338L51.965 25.2329C51.8765 25.0958 51.7394 24.9901 51.5909 24.9359L45.0546 22.64C44.7919 22.5487 44.4949 22.6115 44.2979 22.8114C44.098 23.0056 44.0238 23.2997 44.118 23.5624L49.4179 39.382L31.331 45.1301C31.331 45.1301 31.3224 45.1301 31.3167 45.1358C31.311 45.1358 31.3053 45.1415 31.2967 45.1415L13.9751 50.6498C12.1219 51.2352 10.1345 50.2072 9.53767 48.3483L1.63358 23.4596C1.34518 22.5629 1.42513 21.6063 1.85917 20.7697C2.29321 19.9302 3.02993 19.3134 3.93228 19.025L58.6555 1.62913C59.5521 1.34643 60.5087 1.42353 61.3425 1.85757C62.182 2.29161 62.7988 3.02833 63.0872 3.93068L70.9999 28.8108C71.591 30.6641 70.5573 32.6572 68.6983 33.2483H68.6955Z" fill="#231F20"/>
<path d="M70.9972 28.8137L63.0846 3.93352C62.7961 3.03118 62.1765 2.29445 61.3398 1.86041C60.506 1.42638 59.5494 1.34928 58.6528 1.63197L3.92959 19.0249C3.02725 19.3134 2.29052 19.933 1.85648 20.7697C1.42244 21.6092 1.34535 22.5629 1.6309 23.4596L9.53783 48.3454C10.1318 50.2015 12.1221 51.2324 13.9753 50.647L31.2969 45.1387C31.2969 45.1387 31.3112 45.133 31.3169 45.133C31.3226 45.1273 31.3255 45.1273 31.3312 45.1273L49.418 39.3791L44.1182 23.5595C44.024 23.2968 44.0982 23.0027 44.2981 22.8085C44.4923 22.6086 44.7892 22.5458 45.0548 22.6372L51.5911 24.933C51.7424 24.9873 51.8795 25.0929 51.9652 25.23L58.984 36.3351L68.6957 33.2454C70.5517 32.6543 71.5854 30.6612 70.9972 28.808V28.8137ZM9.06096 37.4887C7.44188 37.4887 6.12549 36.1723 6.12549 34.5533C6.12549 32.9342 7.44188 31.6149 9.06096 31.6149C10.68 31.6149 11.9993 32.937 11.9993 34.5533C11.9993 36.1695 10.6772 37.4887 9.06096 37.4887ZM65.3004 22.6115C65.2262 22.6372 65.1548 22.6457 65.0806 22.6457C64.7693 22.6457 64.4809 22.4459 64.3838 22.1375L61.4598 12.9341C61.337 12.5486 61.5483 12.1346 61.9338 12.0118C62.3193 11.889 62.7276 12.1032 62.8561 12.4887L65.7802 21.692C65.903 22.0775 65.6888 22.4858 65.3033 22.6086L65.3004 22.6115Z" fill="white"/>
<path d="M10.5401 34.5561C10.5401 35.3642 9.8776 36.0296 9.06378 36.0296C8.24996 36.0296 7.59033 35.3671 7.59033 34.5561C7.59033 33.7452 8.25281 33.0798 9.06378 33.0798C9.87475 33.0798 10.5401 33.7423 10.5401 34.5561Z" fill="white"/>
<path d="M61.7766 43.4882L58.0873 52.9371L57.9845 52.9656C57.8131 53.0199 57.6761 53.1313 57.5847 53.274L32.7816 61.1239L24.3236 55.5213L23.998 48.9993L31.0426 46.7606L31.8336 49.4134C31.8907 49.6047 32.0192 49.7589 32.1934 49.8531C32.3647 49.9445 32.5675 49.9645 32.7531 49.9017L51.688 43.8822C51.8794 43.8251 52.0278 43.6909 52.1221 43.5167C52.2106 43.3454 52.2249 43.1427 52.162 42.957L45.9856 24.5247L50.8714 26.2408L61.7823 43.4939L61.7766 43.4882Z" fill="#E81961"/>
</svg>
