<svg width="83" height="83" viewBox="0 0 83 83" fill="none" xmlns="http://www.w3.org/2000/svg">
<g filter="url(#filter0_d_26_1217)">
<path d="M41.6592 50.2945C34.6066 50.2945 28.8923 44.5752 28.8923 37.5276C28.8923 30.48 34.6066 24.7657 41.6592 24.7657C48.7119 24.7657 54.4211 30.48 54.4211 37.5276C54.4211 44.5752 48.7069 50.2945 41.6592 50.2945ZM78.3209 36.6003C78.2958 35.3571 78.2006 34.1291 78.0502 32.9211C77.4938 28.5 76.1555 24.3246 74.1755 20.5401C71.0076 14.49 66.2056 9.43234 60.351 5.96367C59.8648 5.66793 59.3685 5.39224 58.8623 5.12157C58.7219 5.04638 58.5765 4.97118 58.4312 4.896C53.9199 2.57018 48.8572 1.15164 43.4938 0.895999C42.8873 0.860912 42.2758 0.845879 41.6592 0.845879C39.3034 0.845879 36.9976 1.06643 34.767 1.49249C34.757 1.49249 34.752 1.4975 34.7419 1.4975C31.4838 2.11906 28.376 3.17169 25.4838 4.59525C14.7921 9.85841 7.03268 20.1742 5.33343 32.4298C5.16802 33.6028 5.06276 34.8008 5.01263 36.0088C4.98757 36.51 4.97754 37.0163 4.97754 37.5276C4.97754 43.4674 6.39107 49.0764 8.89232 54.0389C10.9725 58.1592 13.8046 61.8384 17.2131 64.881C23.7044 70.6805 32.2708 74.2093 41.6592 74.2093C44.1906 74.2093 46.6668 73.9536 49.0527 73.4624C61.0678 71.0013 70.9424 62.6654 75.5389 51.5927C75.97 50.5702 76.351 49.5176 76.6818 48.4499C76.6868 48.4399 76.6868 48.4248 76.6918 48.4148C76.7219 48.3196 76.752 48.2243 76.777 48.1291C77.7896 44.7757 78.3359 41.2118 78.3359 37.5276C78.3359 37.2168 78.3309 36.906 78.3209 36.6003Z" fill="#F14886"/>
</g>
<defs>
<filter id="filter0_d_26_1217" x="0.977539" y="0.845879" width="81.3584" height="81.3634" filterUnits="userSpaceOnUse" color-interpolation-filters="sRGB">
<feFlood flood-opacity="0" result="BackgroundImageFix"/>
<feColorMatrix in="SourceAlpha" type="matrix" values="0 0 0 0 0 0 0 0 0 0 0 0 0 0 0 0 0 0 127 0" result="hardAlpha"/>
<feOffset dy="4"/>
<feGaussianBlur stdDeviation="2"/>
<feComposite in2="hardAlpha" operator="out"/>
<feColorMatrix type="matrix" values="0 0 0 0 0 0 0 0 0 0 0 0 0 0 0 0 0 0 0.25 0"/>
<feBlend mode="normal" in2="BackgroundImageFix" result="effect1_dropShadow_26_1217"/>
<feBlend mode="normal" in="SourceGraphic" in2="effect1_dropShadow_26_1217" result="shape"/>
</filter>
</defs>
</svg>
