<svg width="33" height="65" viewBox="0 0 33 65" fill="none" xmlns="http://www.w3.org/2000/svg">
<path d="M32.1701 16.02C31.0801 6.91 25.2801 -0.110007 16.7201 -6.6245e-06C7.58012 0.119993 0.760121 5.12999 0.100121 17.18C0.0401212 18.32 0.0301115 19.53 0.0901115 20.79C0.250111 24.77 2.66012 32.52 5.47012 40.31C9.48012 51.41 14.3401 62.6 14.7701 63.16C15.7801 64.45 17.5001 64.34 18.4101 63.16C18.7701 62.69 20.3801 59.05 22.3801 53.99C24.0101 49.86 25.9001 44.82 27.5901 39.77C30.0301 32.49 32.0601 25.23 32.3101 20.79C32.4101 19.15 32.3501 17.55 32.1701 16.01V16.02ZM23.0001 16.65C21.9501 19.09 19.3801 20.81 16.3801 20.81C13.3801 20.81 10.8201 19.09 9.76011 16.65C9.71011 16.53 9.66011 16.41 9.62011 16.29C9.38011 15.63 9.25012 14.92 9.25012 14.18C9.25012 10.53 12.4401 7.55999 16.3801 7.55999C20.3201 7.55999 23.5101 10.53 23.5101 14.18C23.5101 15.05 23.3301 15.88 23.0001 16.64V16.65Z" fill="#F2C743"/>
</svg>
