<svg width="291" height="291" viewBox="0 0 291 291" fill="none" xmlns="http://www.w3.org/2000/svg">
<path d="M290.9 145.08C290.9 225.41 225.78 290.53 145.45 290.53C65.12 290.53 0 225.41 0 145.08C0 73.55 51.63 14.08 119.65 1.91002C119.65 1.91002 119.7 1.90002 119.8 1.88002C121.22 1.62002 122.66 1.39002 124.1 1.18002C124.04 2.32002 124.03 3.53002 124.09 4.79002C124.25 8.77002 126.66 16.52 129.47 24.31C125.36 24.78 121.31 25.46 117.33 26.34C106.87 28.63 96.92 32.27 87.67 37.06C53.19 54.9 28.33 88.74 22.91 128.75C22.46 132.04 22.15 135.36 21.97 138.72C21.85 140.89 21.79 143.06 21.79 145.25C21.79 163.64 25.87 181.08 33.17 196.72C39.81 210.93 49.11 223.65 60.44 234.23C82.19 254.55 111.41 266.99 143.52 266.99C152.68 266.99 161.61 265.98 170.2 264.06C209.05 255.38 240.89 228.13 255.92 192.11C257.59 188.11 259.05 184 260.3 179.8C263.54 168.85 265.27 157.26 265.27 145.26C265.27 139.62 264.88 134.06 264.14 128.61C262.06 113.41 257.18 99.1 250.02 86.23C238.96 66.32 222.47 49.82 202.56 38.77C201.51 38.18 200.45 37.62 199.37 37.07C197.91 36.31 196.43 35.58 194.93 34.88C181.62 28.66 167 24.79 151.59 23.78C154.03 16.5 156.06 9.24002 156.31 4.80002C156.41 3.16002 156.35 1.56002 156.17 0.0200195C231.49 5.50002 290.9 68.36 290.9 145.08Z" fill="#ED135D"/>
</svg>
