<svg width="299" height="299" viewBox="0 0 299 299" fill="none" xmlns="http://www.w3.org/2000/svg">
<g filter="url(#filter0_d_26_1215)">
<path d="M294.902 145.079C294.902 225.41 229.779 290.533 149.449 290.533C69.1178 290.533 4 225.41 4 145.079C4 73.5501 55.6291 14.0815 123.654 1.91106C123.654 1.91106 123.704 1.90104 123.799 1.886C125.223 1.63036 126.657 1.39477 128.095 1.18425C128.035 2.3271 128.03 3.53011 128.08 4.79828C128.241 8.77823 130.647 16.5276 133.464 24.3221C129.353 24.7933 125.303 25.47 121.328 26.3472C110.872 28.6379 100.922 32.277 91.6641 37.0639C57.1829 54.9035 32.3208 88.7431 26.9023 128.753C26.4561 132.041 26.1403 135.365 25.9649 138.728C25.8496 140.893 25.7895 143.069 25.7895 145.259C25.7895 163.65 29.8697 181.094 37.1679 196.728C43.8045 210.939 53.1128 223.655 64.4411 234.237C86.1955 254.558 115.409 266.994 147.524 266.994C156.687 266.994 165.614 265.981 174.2 264.061C213.048 255.38 244.887 228.132 259.915 192.112C261.589 188.112 263.048 184.006 264.291 179.801C267.529 168.848 269.263 157.259 269.263 145.259C269.263 139.615 268.877 134.056 268.13 128.613C266.055 113.41 261.168 99.104 254.015 86.2319C242.957 66.3171 226.466 49.8258 206.551 38.7682C205.499 38.1817 204.436 37.6153 203.363 37.0639C201.9 36.302 200.421 35.5752 198.927 34.8785C185.614 28.6629 170.992 24.7883 155.589 23.7807C158.025 16.5025 160.055 9.23938 160.311 4.79828C160.406 3.15918 160.356 1.55517 160.17 0.0163269C235.494 5.50004 294.902 68.3521 294.902 145.079Z" fill="#DB8F23"/>
</g>
<defs>
<filter id="filter0_d_26_1215" x="0" y="0.0163269" width="298.902" height="298.516" filterUnits="userSpaceOnUse" color-interpolation-filters="sRGB">
<feFlood flood-opacity="0" result="BackgroundImageFix"/>
<feColorMatrix in="SourceAlpha" type="matrix" values="0 0 0 0 0 0 0 0 0 0 0 0 0 0 0 0 0 0 127 0" result="hardAlpha"/>
<feOffset dy="4"/>
<feGaussianBlur stdDeviation="2"/>
<feComposite in2="hardAlpha" operator="out"/>
<feColorMatrix type="matrix" values="0 0 0 0 0 0 0 0 0 0 0 0 0 0 0 0 0 0 0.25 0"/>
<feBlend mode="normal" in2="BackgroundImageFix" result="effect1_dropShadow_26_1215"/>
<feBlend mode="normal" in="SourceGraphic" in2="effect1_dropShadow_26_1215" result="shape"/>
</filter>
</defs>
</svg>
