<svg width="499" height="519" viewBox="0 0 499 519" fill="none" xmlns="http://www.w3.org/2000/svg">
<path d="M493.38 274.9C490.321 409.694 378.636 516.488 243.924 513.431C109.211 510.374 2.48568 398.624 5.54458 263.83C8.26839 143.802 97.1158 45.9758 211.648 28.143C211.648 28.143 211.732 28.1281 211.9 28.0984C214.292 27.7162 216.715 27.385 219.138 27.0874C218.994 28.9981 218.931 31.0281 218.984 33.1447C219.101 39.8292 222.847 52.9254 227.263 66.104C220.352 66.7363 213.535 67.7232 206.827 69.0484C189.198 72.493 172.374 78.2222 156.679 85.9079C98.1774 114.531 55.199 170.369 44.5862 237.3C43.7062 242.803 43.06 248.362 42.6301 253.994C42.3463 257.63 42.163 261.269 42.0796 264.944C41.3794 295.803 47.5574 325.222 59.2038 351.744C69.7979 375.841 84.9095 397.539 103.507 415.724C139.208 450.649 187.735 472.635 241.583 473.857C256.945 474.205 271.959 472.851 286.437 469.956C351.918 456.869 406.351 412.355 432.928 352.485C435.881 345.837 438.486 338.996 440.742 331.996C446.592 313.745 449.935 294.363 450.392 274.227C450.607 264.763 450.164 255.418 449.131 246.245C446.222 220.66 438.583 196.462 427.066 174.594C409.276 140.764 382.251 112.449 349.283 93.1495C347.545 92.1195 345.788 91.1395 343.998 90.1755C341.579 88.8447 339.125 87.5634 336.636 86.3317C314.552 75.388 290.182 68.3377 264.378 66.0565C268.747 53.9335 272.428 41.8284 273.016 34.3876C273.246 31.6395 273.206 28.9524 272.963 26.3614C399.065 38.4233 496.301 146.164 493.38 274.9Z" fill="#ED135D"/>
<path d="M273.279 27.827C271.718 12.5068 262.196 0.556187 247.836 0.490193C232.503 0.424002 220.918 8.63204 219.458 28.8348C219.324 30.7462 219.272 32.7765 219.336 34.8927C219.488 41.5766 223.302 54.653 227.787 67.8083C234.187 86.5535 242.011 105.475 242.715 106.427C244.372 108.621 247.259 108.487 248.82 106.534C249.438 105.755 252.245 99.6939 255.747 91.2609C258.602 84.3777 261.919 75.975 264.902 67.5497C269.207 55.4039 272.825 43.2798 273.374 35.836C273.59 33.0867 273.536 30.3998 273.279 27.8102L273.279 27.827ZM257.881 28.6158C256.048 32.6798 251.688 35.491 246.656 35.4032C241.625 35.3154 237.382 32.3539 235.675 28.2282C235.595 28.0253 235.515 27.8225 235.451 27.6199C235.068 26.5053 234.871 25.31 234.892 24.0681C234.999 17.9428 240.436 13.0519 247.044 13.1673C253.652 13.2826 258.915 18.3602 258.809 24.4856C258.783 25.9456 258.457 27.3332 257.881 28.599L257.881 28.6158Z" fill="#F2C743"/>
<path d="M257.478 28.607C255.645 32.6711 251.284 35.4823 246.253 35.3945C241.221 35.3066 236.978 32.3452 235.272 28.2194C235.273 28.1691 235.361 27.9188 235.501 27.5687C241.95 27.1945 249.286 26.9532 256.968 27.0537C257.305 27.899 257.463 28.4893 257.478 28.5903L257.478 28.607Z" fill="white"/>
</svg>
